


[img]http://i.minus.com/iy4xzz4kiRtI9.jpg[/img]

[img]http://i.minus.com/iCW19xxf2Xhas.jpg[/img]

[img]http://i.minus.com/iFyAaJJ6Sc23C.jpg[/img]

[img]http://i.minus.com/ibqilxciWvYIVf.jpg[/img]

plot info
After the battle with Trip, Ash decides to do some special training with Oshawott to get him to open his eyes underwater. They go to a lake, but when Ash forces Oshawott's eyes open while they are swimming, he gets upset and uses Water gun on Ash and blows him out of the lake. At their campsite, Iris is watching over the other Pokémon while they are playing a game. As Emolga and Snivy get in a fight, Scraggy wanders off and finds a group of Foongus that he angers by using headbutt. The Foongus use Poison Powder that hits all of the Pokémon. Cilan, Ash, and Oshawott go out to find a herb that will cure the poison, but it only grows at the bottom of a lake. Ash takes Oshawott with him into the lake, where they are spotted by a wild Palpitoad, angered because of it's encounter with Trip. The Palpitoad instructs a school of Tympole to attack them, and Oshawott cannot fight back because he cannot see them. He holds his own until he gains enough courage and opens up his eyes, scaring the Tympole off. However, Palpitoad calls upon a Stunfisk friend that uses Discharge to force Ash and Oshawott out of the lake. Cilan decides to use his fishing skills to get the Stunfisk out of the water, drawing Palpitoad out as well. Oshawott battles against Palpitoad while Cilan uses his fishing rod to get Stunfisk KO'd. Oshawott finally is able to defeat Palpitoad when he opens his eyes during Aqua Jet, allowing Ash to capture Palpitoad while Cilan captures Stunfisk. Oshawott dives into the lake once more and finds the herb, which they bring back to camp to heal the others. Oshawoot manages to earn the full respect and gratitude of all the Pokémon. 

General
Complete name                    : Pokemon Black and White -35- Facing Fear With Eyes Wide Open! 720p salman sk.m4v
Format                           : MPEG-4
Format profile                   : Base Media / Version 2
Codec ID                         : mp42
File size                        : 100 MiB
Duration                         : 21mn 22s
Overall bit rate                 : 657 Kbps
Encoded date                     : UTC 2011-09-18 12:23:25
Tagged date                      : UTC 2011-09-18 12:42:02
language			 : English

Video
ID                               : 1
Format                           : AVC
Format/Info                      : Advanced Video Codec
Format profile                   : Main@L3.1
Format settings, CABAC           : Yes
Format settings, ReFrames        : 4 frames
Format settings, GOP             : M=1, N=2
Codec ID                         : avc1
Codec ID/Info                    : Advanced Video Coding
Duration                         : 21mn 22s
Bit rate mode                    : Variable
Bit rate                         : 490 Kbps
Width                            : 1 280 pixels
Height                           : 720 pixels
Display aspect ratio             : 16:9
Frame rate mode                  : Variable
Frame rate                       : 29.970 fps
Minimum frame rate               : 29.412 fps
Maximum frame rate               : 30.303 fps
Color space                      : YUV
Chroma subsampling               : 4:2:0
Bit depth                        : 8 bits
Scan type                        : Progressive
Bits/(Pixel*Frame)               : 0.018
Stream size                      : 74.9 MiB (75%)
Writing library                  : x264 core 112

Audio
ID                               : 2
Format                           : AAC
Format/Info                      : Advanced Audio Codec
Format version                   : Version 4
Format profile                   : LC
Format settings, SBR             : No
Codec ID                         : 40
Duration                         : 21mn 21s
Bit rate mode                    : Variable
Bit rate                         : 160 Kbps
Maximum bit rate                 : 190 Kbps
Channel(s)                       : 2 channels
Channel positions                : Front: L R
Sampling rate                    : 48.0 KHz
Stream size                      : 24.4 MiB (24%)
Language                         : English
Encoded date                     : UTC 2011-09-18 12:23:25
Tagged date                      : UTC 2011-09-18 12:42:02
Audio language			 : English